{"title":"18+ Mistrust 2018 Movies 720p HDRip x264 5.1 with Sample ☻rDX☻","magnet":"magnet:?xt=urn:btih:11e20a438da4934dd3c85c11d595ebb81b88424e&dn=18%2B+Mistrust+2018+Movies+720p+HDRip+x264+5.1+with+Sample+%E2%98%BBrDX%E2%98%BB&tr=udp%3A%2F%2Ftracker.leechers-paradise.org%3A6969&tr=udp%3A%2F%2Fzer0day.ch%3A1337&tr=udp%3A%2F%2Fopen.demonii.com%3A1337&tr=udp%3A%2F%2Ftracker.coppersurfer.tk%3A6969&tr=udp%3A%2F%2Fexodus.desync.com%3A6969","uploader":"basicssom","categoryP":"video","categoryS":"hd___movies","size":"881423661","seeders":"2","leechers":"63","description":"----------------------------------------------------------------\r\n18+ Mistrust 2018 Movies 720p HDRip x264 5.1 with Sample &#x263B;rDX&#x263B;\r\n\r\nSCREEN SHOTS &amp; POSTER:\r\n   <a href=\"\nhttp://iphonehosting.eu/2018/5/a/court/index.html\" rel=\"nofollow\" target=\"_NEW\">\nhttp://iphonehosting.eu/2018/5/a/court/index.html</a> <a href=\"\nhttp://iphonehosting.eu/2018/5/a/court/1.html\" rel=\"nofollow\" target=\"_NEW\">\nhttp://iphonehosting.eu/2018/5/a/court/1.html</a> <a href=\"\nhttp://iphonehosting.eu/2018/5/a/court/2.html\" rel=\"nofollow\" target=\"_NEW\">\nhttp://iphonehosting.eu/2018/5/a/court/2.html</a>   <a href=\"\nhttp://iphonehosting.eu/2018/5/a/court/3.html\" rel=\"nofollow\" target=\"_NEW\">\nhttp://iphonehosting.eu/2018/5/a/court/3.html</a>   <a href=\"\nhttp://iphonehosting.eu/2018/5/a/court/4.html\" rel=\"nofollow\" target=\"_NEW\">\nhttp://iphonehosting.eu/2018/5/a/court/4.html</a>   <a href=\"\nhttp://iphonehosting.eu/2018/5/a/court/5.html\" rel=\"nofollow\" target=\"_NEW\">\nhttp://iphonehosting.eu/2018/5/a/court/5.html</a>   <a href=\"\nhttp://iphonehosting.eu/2018/5/a/court/6.html\" rel=\"nofollow\" target=\"_NEW\">\nhttp://iphonehosting.eu/2018/5/a/court/6.html</a>   <a href=\"\nhttp://iphonehosting.eu/2018/5/a/court/7.html\" rel=\"nofollow\" target=\"_NEW\">\nhttp://iphonehosting.eu/2018/5/a/court/7.html</a>   <a href=\"\nhttp://iphonehosting.eu/2018/5/a/court/8.html\" rel=\"nofollow\" target=\"_NEW\">\nhttp://iphonehosting.eu/2018/5/a/court/8.html</a>   <a href=\"\nhttp://iphonehosting.eu/2018/5/a/court/9.html\" rel=\"nofollow\" target=\"_NEW\">\nhttp://iphonehosting.eu/2018/5/a/court/9.html</a>   <a href=\"\nhttp://iphonehosting.eu/2018/5/a/court/10.html\" rel=\"nofollow\" target=\"_NEW\">\nhttp://iphonehosting.eu/2018/5/a/court/10.html</a>\r\n\r\nFile size                                : 832 MiB\r\nDuration                                 : 1 h 30 min\r\nOverall bit rate                         : 1 290 kb/s\r\nMovie name                               : 18+ Mistrust 2018 Movies 720p HDRip x264 5.1 &#x263B;rDX&#x263B;\r\n\r\nVideo\r\nID                                       : 2\r\nFormat                                   : AVC\r\nFormat/Info                              : Advanced Video Codec\r\nFormat profile                           : High@L4\r\nFormat settings, CABAC                   : Yes\r\nFormat settings, ReFrames                : 4 frames\r\nCodec ID                                 : V_MPEG4/ISO/AVC\r\nDuration                                 : 1 h 30 min\r\nBit rate                                 : 905 kb/s\r\nWidth                                    : 1 280 pixels\r\nHeight                                   : 720 pixels\r\nDisplay aspect ratio                     : 16:9\r\nFrame rate mode                          : Constant\r\nFrame rate                               : 23.976 (24000/1001) FPS\r\nColor space                              : YUV\r\nChroma subsampling                       : 4:2:0\r\nBit depth                                : 8 bits\r\nScan type                                : Progressive\r\nBits/(Pixel*Frame)                       : 0.041\r\nStream size                              : 568 MiB (68%)\r\nTitle                                    : &#x263B;rDX&#x263B;\r\nWriting library                          : x264\r\n\r\nAudio\r\nID                                       : 1\r\nFormat                                   : AC-3\r\nFormat/Info                              : Audio Coding 3\r\nMode extension                           : CM (complete main)\r\nFormat settings, Endianness              : Big\r\nCodec ID                                 : A_AC3\r\nDuration                                 : 1 h 30 min\r\nBit rate mode                            : Constant\r\nBit rate                                 : 384 kb/s\r\nChannel(s)                               : 6 channels\r\nChannel positions                        : Front: L C R, Side: L R, LFE\r\nSampling rate                            : 48.0 kHz\r\nFrame rate                               : 31.250 FPS (1536 spf)\r\nBit depth                                : 16 bits\r\nCompression mode                         : Lossy\r\nDelay relative to video                  : -21 ms\r\nStream size                              : 248 MiB (30%)\r\nTitle                                    : &#x263B;rDX&#x263B;\r\nDefault                                  : Yes\r\nForced                                   : No","last_updated":"2018-06-02T12:09:21.547Z","parsed":{"xt":"urn:btih:11e20a438da4934dd3c85c11d595ebb81b88424e","dn":"18  Mistrust 2018 Movies 720p HDRip x264 5.1 with Sample ☻rDX☻","tr":["udp://exodus.desync.com:6969","udp://open.demonii.com:1337","udp://tracker.coppersurfer.tk:6969","udp://tracker.leechers-paradise.org:6969","udp://zer0day.ch:1337"],"infoHash":"11e20a438da4934dd3c85c11d595ebb81b88424e","infoHashBuffer":{"type":"Buffer","data":[17,226,10,67,141,164,147,77,211,200,92,17,213,149,235,184,27,136,66,78]},"name":"18  Mistrust 2018 Movies 720p HDRip x264 5.1 with Sample ☻rDX☻","announce":["udp://exodus.desync.com:6969","udp://open.demonii.com:1337","udp://tracker.coppersurfer.tk:6969","udp://tracker.leechers-paradise.org:6969","udp://zer0day.ch:1337"],"urlList":[]}}